<?xml version="1.0" standalone="no"?>
<!DOCTYPE svg PUBLIC "-//W3C//DTD SVG 20010904//EN"
 "http://www.w3.org/TR/2001/REC-SVG-20010904/DTD/svg10.dtd">
<svg version="1.0" xmlns="http://www.w3.org/2000/svg"
 width="640.000000pt" height="770.000000pt" viewBox="0 0 640.000000 770.000000"
 preserveAspectRatio="xMidYMid meet">
<metadata>
Created by potrace 1.16, written by Peter Selinger 2001-2019
</metadata>
<g transform="translate(0.000000,770.000000) scale(0.100000,-0.100000)"
fill="#000000" stroke="none">
<path d="M1280 7671 c0 -28 2 -29 35 -24 39 6 78 -18 68 -43 -4 -10 3 -14 24
-14 29 0 30 -2 32 -50 1 -44 -1 -50 -19 -50 -13 0 -20 -7 -20 -20 0 -19 -3
-21 -62 -25 -9 0 -25 -12 -37 -25 -11 -14 -20 -20 -21 -15 0 16 -67 48 -85 42
-8 -4 -18 -15 -22 -24 -8 -23 -54 -62 -73 -63 -9 0 -25 -7 -37 -15 -30 -21
-55 -9 -51 24 3 29 3 29 -64 18 -47 -8 -67 -27 -28 -27 23 0 42 -57 34 -100
-7 -34 11 -48 28 -20 15 23 38 27 38 6 0 -7 -9 -16 -20 -19 -24 -6 -27 -45 -5
-53 17 -7 20 -40 5 -49 -13 -8 -50 13 -50 29 0 22 -23 35 -52 29 -28 -5 -28
-5 -11 -34 13 -22 14 -32 6 -40 -16 -16 -47 -3 -39 17 4 12 2 15 -9 11 -8 -4
-18 0 -22 7 -15 25 -51 29 -62 7 -15 -28 -15 -29 25 -46 31 -13 34 -17 24 -30
-7 -8 -16 -15 -21 -15 -4 0 -25 -11 -45 -25 -20 -14 -42 -25 -49 -25 -10 0
-40 49 -33 55 2 1 13 7 25 14 18 9 20 16 13 40 -9 32 10 71 36 71 22 0 16 18
-8 22 -13 2 -33 -7 -49 -23 -21 -19 -35 -25 -58 -21 -17 2 -31 0 -31 -6 0 -12
-53 -11 -62 2 -3 5 -4 33 -1 61 5 48 3 55 -26 86 -26 29 -32 32 -41 19 -15
-21 -8 -75 9 -75 23 0 24 -23 2 -35 -30 -15 -27 -61 4 -90 30 -28 28 -42 -6
-46 -13 -1 -34 -5 -46 -9 -17 -6 -23 -3 -23 9 0 10 -6 13 -15 10 -21 -8 -19
-25 3 -31 12 -3 18 -13 17 -31 0 -15 4 -30 10 -34 6 -5 3 -14 -9 -25 -13 -13
-20 -15 -23 -5 -7 17 -23 15 -23 -3 0 -20 -40 -35 -62 -24 -28 15 -50 10 -55
-11 -3 -11 -10 -20 -17 -20 -6 0 -22 -10 -36 -22 -27 -25 -41 -29 -112 -32
-58 -3 -78 -19 -78 -61 0 -24 5 -34 20 -38 18 -5 20 -14 20 -76 0 -56 -3 -71
-15 -71 -8 0 -15 -7 -15 -15 0 -15 31 -21 43 -8 15 14 85 14 99 0 8 -8 24 -18
36 -22 19 -6 21 -9 10 -22 -10 -13 -9 -18 7 -29 21 -16 75 -10 87 10 4 6 14
20 22 31 15 20 15 20 16 -1 0 -26 -36 -74 -57 -74 -26 0 -8 -24 26 -33 32 -8
32 -9 26 -50 -14 -84 -55 -120 -138 -122 -34 -1 -73 -4 -87 -8 -21 -6 -28 -3
-43 24 -9 17 -17 46 -17 65 0 19 -8 51 -17 72 -18 36 -18 25 -21 -388 -2 -367
0 -431 13 -467 14 -37 15 -45 0 -78 -23 -56 -19 -101 10 -133 25 -27 36 -92
15 -92 -6 0 -6 -9 -1 -22 5 -13 5 -49 0 -81 -4 -36 -3 -70 3 -88 8 -24 7 -34
-6 -48 -9 -10 -14 -25 -10 -34 4 -11 0 -19 -10 -23 -23 -9 -24 -291 -1 -300
13 -5 13 -8 0 -21 -8 -8 -15 -25 -15 -39 0 -19 5 -24 25 -24 22 0 25 -4 25
-32 0 -18 3 -69 8 -113 14 -149 -9 -189 -28 -47 -6 48 -15 98 -18 112 -12 42
-14 -1657 -2 -1732 5 -37 10 -92 10 -122 0 -31 13 -168 30 -306 34 -288 36
-330 15 -330 -14 0 -24 8 -50 45 -13 18 -14 -5 -15 -193 0 -210 0 -213 20
-202 11 6 20 15 20 19 0 5 9 11 20 14 15 4 20 14 20 40 0 63 9 65 230 51 88
-6 140 -20 154 -43 4 -5 7 -21 8 -35 1 -14 8 -26 15 -26 8 0 16 -8 20 -18 3
-9 17 -29 31 -44 13 -14 22 -32 19 -40 -2 -7 4 -23 15 -35 38 -41 -2 -56 -70
-27 -30 13 -85 23 -187 35 -25 3 -183 -12 -210 -20 l-30 -9 33 -1 c17 -1 32
-5 32 -9 0 -5 37 -13 82 -18 65 -8 90 -7 115 3 46 18 80 16 103 -7 11 -11 35
-26 55 -34 40 -17 53 -41 37 -67 -7 -10 -12 -26 -12 -34 0 -8 -9 -15 -19 -15
-10 0 -21 -7 -25 -15 -4 -11 2 -15 25 -15 49 0 49 -28 0 -71 -41 -37 -42 -38
-22 -51 28 -17 26 -49 -4 -78 -14 -13 -25 -29 -25 -36 0 -19 -50 -54 -78 -54
-20 0 -23 -4 -18 -20 3 -11 9 -29 12 -40 10 -32 -34 -27 -46 5 -5 14 -17 25
-26 25 -13 0 -15 -7 -10 -35 10 -54 -19 -46 -35 10 -15 52 -38 64 -75 40 -13
-9 -29 -13 -33 -10 -5 3 -16 -2 -25 -11 -23 -22 -52 -9 -73 33 -40 82 -43 64
-43 -297 0 -385 1 -391 77 -439 21 -14 63 -46 93 -71 89 -75 141 -110 166
-110 43 0 53 -11 60 -61 l7 -49 122 0 c120 0 122 0 122 23 -1 53 4 77 13 77 6
0 29 9 51 19 39 19 40 19 34 0 -5 -16 -1 -19 25 -19 35 0 90 46 90 75 0 14 7
16 39 10 29 -5 40 -3 44 9 8 21 -8 29 -43 21 -17 -4 -30 -4 -30 0 0 11 28 35
40 35 7 0 21 11 31 24 11 14 28 28 39 31 19 6 44 70 34 86 -3 5 4 14 16 21 11
7 20 18 20 25 0 6 10 20 23 30 13 10 26 25 30 33 25 53 45 75 68 72 13 -1 27
-8 31 -15 5 -8 8 -3 8 12 0 33 16 15 23 -25 3 -17 1 -36 -5 -42 -6 -6 -8 -18
-4 -27 5 -13 9 -15 20 -6 11 9 17 5 29 -21 16 -37 31 -168 18 -168 -10 0 -9
-50 2 -67 4 -6 16 -9 27 -6 14 4 20 0 20 -11 0 -9 -7 -16 -15 -16 -8 0 -15 -3
-15 -8 0 -4 -10 -12 -22 -17 -13 -6 -24 -18 -26 -29 -3 -15 1 -18 22 -14 20 4
29 -1 42 -20 12 -18 14 -27 6 -30 -26 -8 -11 -24 18 -18 26 5 32 2 42 -19 l11
-25 821 0 c452 0 871 4 931 10 61 5 272 21 470 35 198 14 434 32 525 40 91 8
219 17 285 20 163 8 162 8 186 60 24 52 34 60 69 60 20 0 25 4 23 23 -3 22 0
23 60 22 125 -3 269 16 328 42 36 17 66 24 84 20 19 -3 26 -1 21 6 -3 6 -26
14 -49 17 -38 6 -49 3 -89 -24 -53 -36 -107 -40 -240 -19 -74 12 -77 13 -97
51 l-21 39 20 29 c18 24 19 32 9 50 -6 12 -12 47 -11 76 0 37 -5 56 -14 60 -8
3 -14 11 -14 19 0 7 -8 17 -17 23 -15 8 -13 13 19 45 20 20 38 43 42 51 7 20
-18 20 -34 0 -7 -8 -15 -15 -19 -15 -10 0 -31 84 -23 90 14 10 41 76 48 113 3
20 10 37 15 37 5 0 9 8 9 18 0 22 30 52 52 52 20 0 31 40 16 57 -6 7 -23 13
-38 13 -52 0 -62 8 -45 40 23 45 98 55 132 17 12 -12 34 -45 51 -73 16 -27 46
-72 66 -98 20 -26 36 -53 36 -59 0 -7 20 -39 45 -72 25 -33 45 -64 45 -68 0
-22 93 -136 118 -145 44 -16 132 -41 207 -57 39 -9 81 -20 94 -26 14 -6 45
-14 70 -20 25 -5 77 -17 114 -28 52 -14 77 -17 109 -9 48 10 97 2 105 -18 3
-8 9 -14 14 -14 6 0 6 8 0 19 -9 15 -1 26 43 68 32 29 56 61 60 78 4 17 22 48
41 70 28 33 36 37 44 25 15 -23 24 -4 25 51 l1 51 52 -5 c65 -7 76 6 29 34
-49 29 -47 50 14 129 32 40 50 90 50 134 0 17 7 52 15 78 7 26 19 99 25 162
10 112 9 118 -13 174 -20 47 -22 62 -12 75 12 17 8 74 -6 83 -5 3 -9 16 -9 30
0 14 -7 27 -15 30 -8 4 -15 12 -15 20 0 8 -4 14 -8 14 -4 0 -18 36 -32 81 -18
61 -29 83 -45 89 -25 9 -61 59 -57 78 2 7 -6 30 -18 50 -16 26 -20 45 -15 69
4 25 2 35 -10 39 -8 3 -15 12 -15 20 0 8 -6 14 -13 14 -23 0 -47 35 -47 67 0
17 -6 36 -14 42 -13 11 -24 46 -32 100 -2 14 6 32 22 48 25 24 25 25 2 17 -82
-26 -117 -19 -102 20 4 11 1 16 -10 16 -22 0 -36 31 -30 73 3 24 0 37 -8 37
-6 0 -8 3 -5 7 4 3 2 12 -5 20 -6 8 -13 42 -16 76 -2 34 -9 69 -16 77 -7 8
-16 23 -19 33 -4 10 -11 16 -16 13 -11 -7 -30 47 -37 101 -3 20 -11 44 -19 53
-12 13 -13 28 -5 73 13 82 15 79 -106 200 -88 90 -116 113 -178 157 -23 15
-49 36 -56 46 -8 9 -31 27 -51 39 -52 33 -209 185 -209 202 0 8 -5 11 -10 8
-6 -3 -47 23 -92 59 -45 36 -88 66 -95 66 -6 0 -27 9 -45 19 -18 11 -78 34
-133 52 -55 17 -114 40 -131 50 -17 11 -53 22 -80 26 -63 8 -117 30 -111 46 2
7 29 13 67 15 35 1 66 5 69 7 13 13 -17 20 -77 17 -166 -8 -180 -7 -207 18
-14 13 -25 30 -25 38 0 10 -5 12 -17 7 -43 -18 -75 -17 -103 4 -16 11 -38 21
-49 21 -11 0 -23 5 -26 10 -3 6 -26 15 -51 21 -24 6 -44 15 -44 19 0 4 -8 10
-17 14 -17 5 -25 9 -68 35 -11 6 -28 14 -37 17 -10 4 -18 9 -18 13 0 4 -27 12
-59 19 -32 7 -64 19 -70 26 -7 8 -24 17 -39 21 -35 9 -61 37 -69 75 -3 17 -9
33 -14 36 -12 7 -59 -26 -59 -43 0 -10 -4 -11 -19 -3 -11 5 -27 10 -36 10 -30
0 -84 31 -91 52 -3 11 -33 49 -67 84 -33 36 -67 75 -75 87 -8 12 -40 47 -70
78 -30 32 -53 62 -50 69 2 7 30 21 62 32 32 11 75 31 94 44 19 13 38 24 42 24
4 0 26 27 49 60 23 33 46 60 51 60 4 0 13 14 19 30 5 17 20 44 31 60 26 37 21
56 -28 101 -49 47 -94 60 -234 68 -65 4 -120 10 -123 13 -12 12 8 35 58 66 28
18 81 50 116 72 36 22 75 40 88 40 13 0 23 4 23 9 0 4 30 27 66 51 67 43 94
81 94 132 0 35 24 63 84 97 51 28 60 30 148 28 l93 -2 -2 26 c-1 20 3 25 20
25 16 -1 23 6 25 24 5 36 20 50 53 50 22 0 30 6 34 23 6 21 91 87 112 87 9 0
32 26 75 84 12 16 36 35 55 42 38 16 70 63 102 149 23 65 21 89 -11 106 -25
13 -37 -1 -30 -36 5 -29 -18 -84 -38 -90 -9 -3 -21 -19 -27 -35 -7 -19 -24
-36 -45 -44 -33 -15 -108 -104 -108 -130 0 -20 -26 -38 -55 -38 -16 0 -25 -6
-25 -17 0 -21 -56 -66 -95 -75 -16 -4 -52 -10 -79 -12 -61 -6 -72 -12 -50 -29
16 -11 14 -15 -27 -35 -24 -12 -68 -38 -97 -58 -28 -19 -55 -32 -59 -29 -7 7
1 34 53 193 39 115 40 128 18 169 -9 17 -36 84 -60 150 -24 66 -49 128 -54
138 -6 9 -20 42 -31 73 -12 30 -41 87 -65 127 -24 39 -44 79 -44 88 0 10 -13
58 -30 107 -30 90 -41 202 -20 202 13 0 13 27 0 32 -11 4 -16 378 -5 421 10
39 29 28 36 -21 3 -25 14 -51 27 -62 26 -25 27 -28 6 -51 -14 -16 -14 -18 6
-29 17 -9 29 -9 51 0 23 10 32 10 44 0 16 -13 36 -11 105 15 34 13 49 14 63 6
9 -6 17 -7 17 -3 0 5 8 18 18 30 17 19 19 19 29 4 9 -15 12 -15 27 -3 11 9 38
13 76 12 59 -2 90 8 118 36 7 7 32 13 55 13 61 0 105 19 109 47 3 22 4 22 32
8 37 -19 52 -19 101 5 46 22 76 25 93 8 9 -9 12 -9 12 2 0 11 23 12 126 6 69
-3 135 -11 146 -17 29 -16 124 -5 141 16 4 6 5 -2 1 -17 -4 -19 0 -32 15 -47
12 -12 21 -32 21 -46 0 -24 -2 -25 -70 -25 l-70 0 0 -82 0 -83 55 3 56 4 -7
-44 c-7 -46 -72 -306 -80 -319 -2 -4 39 -36 92 -70 l95 -64 -27 -24 -28 -23
-23 27 c-13 15 -26 25 -29 22 -8 -8 6 -47 17 -47 5 0 9 -8 9 -17 -1 -14 -110
-106 -172 -144 -13 -8 99 -118 120 -119 7 0 50 31 95 68 122 101 115 96 132
82 12 -10 21 -10 45 0 42 17 38 30 -6 18 -46 -12 -53 -4 -24 27 l23 24 33 -27
c54 -45 120 -92 130 -92 5 0 23 17 40 37 l32 38 10 -40 c5 -22 13 -58 18 -80
l9 -40 78 3 79 4 -6 -37 c-4 -21 -9 -41 -12 -47 -9 -14 19 -110 33 -115 21 -8
43 17 43 48 0 22 -6 30 -25 35 -14 3 -25 10 -25 15 0 5 11 14 25 19 27 10 31
20 15 36 -16 16 -1 44 23 44 33 0 103 38 115 63 7 12 16 40 20 62 7 37 11 40
40 40 37 0 39 4 12 38 -14 17 -20 40 -20 74 0 27 -5 54 -11 60 -14 14 -25 148
-12 156 5 3 40 2 79 -2 38 -5 57 -9 42 -10 -16 0 -37 -10 -48 -21 -12 -12 -25
-18 -30 -15 -6 3 -7 -1 -4 -9 3 -9 1 -16 -5 -16 -6 0 -11 -4 -11 -9 0 -11 59
-33 70 -26 5 3 19 1 32 -4 13 -6 17 -10 8 -11 -10 -1 -9 -4 5 -9 16 -7 10 -10
-27 -16 -40 -6 -48 -11 -52 -34 -4 -14 -2 -39 2 -56 7 -25 14 -30 39 -31 16
-1 36 -4 42 -9 7 -4 22 1 34 13 12 11 37 23 55 27 17 3 32 11 32 16 0 5 11 7
25 3 18 -5 25 -3 23 7 -2 7 6 15 17 17 11 2 27 10 36 18 11 10 23 12 38 6 12
-4 37 -6 56 -4 25 3 34 10 37 26 3 12 0 27 -6 33 -6 5 -27 29 -46 51 -19 23
-40 42 -46 42 -6 0 -29 18 -52 40 -36 36 -41 47 -44 93 l-3 52 -59 7 c-66 9
-80 17 -102 64 -9 19 -22 34 -29 34 -7 0 -15 9 -18 20 -3 11 -1 18 4 14 5 -3
9 1 9 10 0 8 36 44 80 81 l81 67 -3 77 -3 76 -140 2 c-77 1 -184 2 -237 3
l-98 0 0 32 c0 34 -16 29 -22 -7 -3 -18 -13 -21 -88 -25 l-85 -5 -3 -38 c-3
-36 -5 -38 -28 -33 -26 7 -66 41 -57 49 2 3 -6 8 -18 12 -13 4 -32 19 -42 32
-12 15 -27 23 -40 21 -15 -2 -23 3 -25 16 -3 14 0 17 11 13 9 -3 20 0 26 7 17
20 71 28 89 14 10 -9 9 -3 -3 14 -18 25 -26 27 -82 28 -61 0 -62 0 -60 -27 l2
-28 -88 2 c-87 1 -87 1 -93 -25 -3 -15 -7 -31 -8 -36 -3 -14 -46 -17 -46 -3 0
8 -3 7 -10 -3 -8 -12 -11 -12 -28 3 -10 9 -32 17 -48 17 -16 0 -41 6 -55 14
-30 15 -113 31 -146 28 -13 -2 -24 4 -27 15 -7 23 -68 52 -74 35 -2 -7 -18
-12 -37 -12 -23 0 -37 -7 -48 -22 l-15 -23 -26 24 c-14 14 -26 21 -26 17 0 -4
-10 -1 -22 6 -13 7 -27 11 -33 9 -5 -2 -19 -5 -30 -7 -42 -8 -95 -39 -95 -56
0 -13 -8 -18 -30 -18 -29 0 -30 2 -30 45 l0 45 -90 0 c-88 0 -101 -5 -79 -27
8 -8 4 -15 -12 -26 -12 -9 -26 -14 -29 -12 -9 5 -28 -15 -29 -30 -1 -5 -18
-10 -40 -10 -21 0 -45 -6 -54 -13 -9 -8 -36 -20 -59 -27 -29 -8 -44 -18 -46
-31 -2 -17 -11 -19 -75 -18 -70 1 -72 2 -79 31 -4 16 -21 39 -38 51 -26 19
-30 29 -30 67 0 43 -1 45 -29 45 -38 0 -60 -32 -124 -177 -6 -13 -18 -31 -27
-40 -9 -10 -30 -48 -47 -85 -35 -74 -58 -89 -98 -62 -25 16 -29 42 -6 36 24
-5 9 10 -19 19 -16 6 -30 14 -30 17 0 4 16 18 35 31 19 13 35 27 35 32 0 5 11
9 25 9 14 0 25 4 25 10 0 5 14 16 30 25 17 9 30 22 30 30 0 19 -44 1 -82 -34
-16 -13 -28 -21 -28 -16 0 5 -7 0 -15 -11 -8 -12 -28 -24 -44 -27 -20 -4 -35
-17 -46 -37 -8 -16 -28 -38 -43 -47 -15 -10 -29 -20 -32 -23 -14 -15 -88 -60
-98 -60 -7 0 -12 -5 -12 -10 0 -6 -8 -13 -17 -17 -10 -3 -27 -13 -38 -23 -11
-9 -51 -27 -90 -39 -38 -13 -82 -32 -97 -42 -30 -22 -38 -23 -38 -8 0 6 -10
19 -22 29 -18 14 -20 20 -10 33 10 12 8 17 -12 31 -14 9 -32 16 -40 16 -8 0
-18 5 -21 10 -11 17 -37 11 -42 -10 -4 -15 -14 -20 -37 -20 -24 0 -38 -9 -63
-39 -18 -21 -34 -45 -35 -52 -4 -16 -10 -25 -41 -61 -18 -20 -29 -26 -47 -21
-16 4 -21 3 -16 -5 4 -7 1 -12 -8 -12 -9 0 -16 -6 -16 -14 0 -8 -10 -14 -22
-14 -28 0 -235 -73 -303 -107 -39 -20 -66 -25 -121 -25 -40 0 -75 -5 -82 -12
-6 -6 -15 -8 -19 -4 -4 4 -1 11 7 16 12 8 12 10 -3 10 -18 0 -56 36 -57 53 0
4 11 7 24 7 18 0 25 6 28 23 2 12 8 22 15 22 24 0 27 17 6 33 -25 19 -20 36
15 46 20 7 27 0 24 -25 -1 -4 10 -9 23 -12 14 -2 25 0 25 4 0 5 -5 9 -11 9 -6
0 -9 10 -7 22 3 26 36 37 49 17 6 -11 12 -10 27 4 10 9 29 17 41 17 12 0 31 5
41 10 17 9 18 14 8 35 -6 14 -18 25 -27 26 -16 1 -8 5 47 24 12 4 22 15 22 25
0 23 26 44 44 37 11 -4 14 2 14 21 l-1 27 -100 -2 c-100 -2 -130 3 -108 17 17
10 2 40 -20 40 -23 0 -23 0 -4 -36 19 -37 19 -54 0 -54 -8 0 -15 7 -15 16 0 9
-6 14 -13 11 -20 -8 -52 20 -40 35 5 7 10 26 11 43 3 35 22 60 22 27 0 -12 5
-22 10 -22 6 0 8 11 4 25 -5 21 -3 25 17 25 13 0 35 11 47 25 19 19 28 23 42
15 12 -7 21 -7 25 0 3 5 19 7 35 3 19 -3 30 -1 30 6 0 6 10 11 23 11 40 0 117
33 167 72 l25 20 -30 -8 c-17 -4 -49 -16 -73 -27 -24 -10 -65 -19 -90 -18 -26
0 -74 -9 -107 -20 -33 -11 -72 -18 -86 -15 -16 3 -32 0 -38 -8 -15 -18 -59 -8
-72 15 -8 17 -6 19 21 19 34 0 41 19 10 27 -24 6 -24 12 -5 37 14 19 15 19 15
-6 0 -22 4 -25 25 -20 31 6 34 37 3 45 -17 5 -19 9 -9 20 12 15 61 29 61 18 0
-4 -5 -12 -12 -19 -9 -9 -5 -12 20 -12 22 0 32 -5 32 -16 0 -8 5 -12 10 -9 6
4 3 16 -10 32 -22 28 -19 43 10 43 10 0 22 5 25 10 4 6 -14 10 -46 10 -37 0
-56 -5 -65 -17 -13 -17 -15 -17 -25 0 -9 15 -27 17 -134 17 l-125 0 0 -29z
m4023 -319 c11 -10 37 -15 75 -15 78 1 91 3 97 14 4 5 16 9 28 9 21 0 21 -1
-3 -13 -14 -7 -26 -21 -28 -32 -4 -17 -3 -18 13 -2 9 9 20 17 25 17 5 0 -9
-18 -30 -40 -38 -39 -40 -44 -40 -105 l0 -65 -140 0 -140 0 5 23 c11 51 25
155 25 193 l0 42 48 -5 c26 -3 55 -12 65 -21z m-2288 -59 c3 -10 1 -93 -6
-185 -9 -125 -9 -174 -1 -193 6 -13 14 -50 17 -82 4 -32 13 -89 21 -128 16
-82 18 -125 4 -125 -6 0 -9 -5 -8 -12 2 -6 -7 -17 -20 -23 -19 -10 -20 -14 -9
-24 8 -6 12 -21 10 -34 -2 -12 1 -29 7 -37 9 -13 13 -12 28 8 21 27 32 20 32
-22 0 -22 -11 -42 -38 -71 -21 -22 -43 -49 -49 -60 -14 -28 -37 -144 -30 -151
13 -13 25 8 37 65 14 67 48 134 71 139 11 2 18 -13 27 -60 12 -59 10 -186 -2
-207 -7 -11 -173 -135 -236 -176 -25 -17 -47 -33 -50 -36 -3 -3 -25 -20 -50
-38 l-45 -32 -153 2 c-84 1 -155 -1 -159 -5 -3 -3 -29 -6 -57 -6 -49 0 -172
-26 -229 -49 -47 -18 -67 -14 -78 18 -7 18 -24 36 -46 46 -42 20 -55 13 -18
-11 20 -13 25 -24 23 -48 -2 -18 -9 -32 -18 -34 -16 -2 -59 35 -100 88 -46 59
-48 60 -120 60 -64 0 -71 -2 -117 -39 -43 -35 -51 -47 -77 -127 -37 -115 -49
-134 -85 -134 -16 0 -57 -9 -92 -19 -35 -11 -87 -22 -116 -26 -28 -4 -60 -13
-70 -21 -17 -14 -17 -15 2 -10 45 12 95 17 95 9 0 -11 -37 -43 -50 -43 -6 0
-19 -9 -31 -21 -11 -11 -37 -22 -57 -23 -20 -2 -37 -9 -37 -15 0 -6 -10 -18
-22 -26 -18 -13 -42 -15 -122 -10 -113 6 -131 10 -131 34 0 9 -7 29 -15 45 -8
15 -15 39 -15 52 0 12 -4 26 -10 29 -5 3 -10 19 -10 35 0 16 -4 32 -10 35 -22
13 3 120 30 131 8 3 53 5 100 5 114 -2 167 14 172 51 5 34 4 34 -33 7 -25 -17
-38 -19 -84 -14 -38 5 -59 13 -65 25 -9 17 -12 17 -51 -2 -39 -18 -42 -19 -60
-2 -11 10 -31 18 -44 19 -31 1 -41 12 -48 53 -5 25 -3 32 9 32 12 0 15 6 10
25 -4 14 -3 25 2 25 5 0 14 11 20 25 14 30 3 32 -26 5 -46 -43 -67 -15 -60 82
2 40 -1 57 -14 70 -28 28 -23 72 13 107 37 38 43 39 35 6 -5 -18 -2 -25 9 -25
8 0 15 -7 15 -15 0 -8 5 -15 11 -15 7 0 6 -8 -4 -23 -14 -22 -14 -23 30 -33
43 -10 44 -10 39 12 -4 16 -1 26 11 33 16 9 16 12 3 20 -8 6 -11 13 -7 17 4 4
16 -1 27 -11 23 -21 21 -22 37 24 11 30 10 34 -8 38 -17 5 -19 11 -13 37 9 45
22 66 41 66 12 0 14 -7 10 -28 -5 -26 -4 -28 28 -28 23 0 35 5 38 17 3 10 15
17 30 17 18 0 24 -5 20 -14 -3 -10 0 -12 10 -8 9 3 18 12 21 21 4 8 13 13 21
9 21 -8 45 3 39 18 -3 7 7 21 21 30 22 14 24 20 14 32 -9 11 -9 18 -1 26 7 7
12 20 12 30 0 11 11 23 25 28 14 5 25 14 25 19 0 14 40 25 82 23 30 -2 41 3
54 23 14 21 22 24 55 20 30 -4 39 -2 39 9 0 21 38 30 57 14 13 -10 17 -11 21
0 3 10 7 10 18 1 11 -9 15 -7 21 7 4 11 17 27 30 37 20 16 21 20 8 33 -12 12
-12 19 -2 35 16 26 31 19 35 -19 2 -18 6 -32 9 -32 17 0 53 55 53 80 0 36 41
70 86 70 18 0 34 5 36 12 3 8 11 7 28 -5 14 -9 35 -17 48 -17 13 0 32 -4 42
-10 13 -7 21 -6 30 5 10 12 10 15 -1 16 -8 1 0 5 16 8 21 5 34 3 42 -7 11 -13
13 -13 19 1 3 10 15 17 25 17 10 0 19 4 19 10 0 13 61 38 86 36 10 -1 38 -8
62 -15 43 -12 81 -7 93 12 4 5 13 7 20 4 9 -3 2 -10 -18 -18 -18 -8 -33 -17
-33 -21 0 -10 -11 -11 100 11 108 20 129 30 179 84 20 21 57 50 84 63 26 13
47 28 47 32 0 4 10 12 22 17 34 16 45 41 26 62 -11 13 -13 24 -7 41 7 18 16
22 48 22 26 0 49 8 68 23 15 12 45 31 66 42 21 11 43 26 49 33 15 17 35 15 43
-5z m2003 -51 c9 -28 -56 -282 -81 -316 -13 -18 -15 -18 -50 5 -20 13 -37 29
-37 35 0 9 36 182 55 261 4 16 14 23 38 25 51 5 71 2 75 -10z m260 -284 c70 0
135 -1 145 0 15 2 17 -8 17 -82 l0 -84 -36 3 c-20 2 -39 6 -42 9 -9 9 -32 -15
-25 -27 3 -5 -2 -16 -12 -23 -16 -12 -17 -16 -3 -31 8 -10 19 -35 25 -55 9
-32 9 -38 -6 -43 -24 -7 -111 -3 -111 5 0 4 11 17 24 29 19 18 22 26 13 36 -7
7 -18 10 -27 5 -18 -9 -40 -2 -40 11 0 5 20 18 45 29 45 19 60 40 28 40 -9 0
-24 -6 -32 -14 -9 -7 -32 -16 -51 -20 -30 -5 -43 -1 -79 25 -30 23 -40 36 -35
48 20 46 64 179 66 196 1 11 3 3 5 -17 l4 -38 127 -2z m-4325 -242 c16 -12 40
-31 53 -43 24 -22 24 -24 8 -55 l-17 -32 -23 28 c-20 23 -25 25 -30 11 -4 -10
-13 -13 -24 -10 -10 3 -21 1 -24 -4 -4 -6 -14 -7 -22 -4 -9 3 -19 1 -23 -6 -4
-6 -15 -9 -23 -6 -12 5 -16 21 -15 66 0 33 4 62 9 65 4 3 8 -5 8 -18 l0 -23
13 25 c9 16 10 27 3 32 -5 4 10 4 35 1 24 -3 57 -15 72 -27z m-197 -68 c7 -11
8 -43 4 -85 -1 -13 -4 -10 -9 7 -6 22 -13 25 -54 27 -25 1 -49 -2 -52 -7 -3
-6 1 -10 10 -10 8 0 20 -10 25 -22 6 -13 15 -30 22 -39 9 -14 8 -20 -5 -34 -9
-9 -20 -28 -23 -43 -4 -15 -10 -31 -14 -37 -4 -5 -10 -22 -14 -37 -9 -38 -33
-35 -39 5 -15 87 -29 130 -51 154 -29 30 -33 85 -7 82 9 -1 24 1 34 6 10 4 31
5 47 1 23 -4 32 -1 40 14 9 16 26 24 67 29 6 0 15 -4 19 -11z m-332 -715 c3
-16 3 -57 0 -93 -3 -36 -5 -74 -6 -86 0 -20 -46 -57 -65 -53 -4 1 -15 -1 -23
-4 -8 -3 -26 -7 -40 -9 -29 -4 -57 -48 -37 -60 27 -17 92 -6 129 23 20 16 39
26 41 21 6 -12 0 -165 -8 -194 -13 -48 -28 -20 -20 38 6 49 5 54 -12 54 -11 0
-24 -5 -30 -11 -6 -6 -17 -11 -24 -13 -27 -4 -59 -31 -59 -49 0 -10 -7 -20
-16 -24 -11 -4 -13 -13 -9 -33 7 -33 -9 -48 -31 -29 -9 7 -35 12 -60 10 l-44
-3 0 35 c0 19 -7 54 -15 77 -8 24 -15 77 -15 120 0 88 8 101 66 106 20 1 44
10 53 18 26 24 44 21 31 -5 -7 -11 -17 -18 -25 -15 -14 5 -23 -25 -17 -61 4
-25 22 -32 22 -8 0 21 32 35 53 23 15 -8 17 -6 12 15 -4 16 1 43 14 72 17 37
24 45 40 40 17 -5 19 -1 17 47 -1 44 2 53 15 50 9 -1 19 4 23 13 9 25 34 17
40 -12z m-198 -629 c-6 -13 -17 -24 -23 -24 -24 0 -13 -18 15 -25 33 -7 82
-49 82 -70 0 -8 -4 -15 -10 -15 -5 0 -10 4 -10 9 0 14 -50 23 -64 12 -18 -15
-70 31 -54 47 9 9 4 20 -21 46 -43 44 -37 73 17 78 51 4 84 -23 68 -58z m202
-140 c5 -25 85 -143 126 -186 19 -19 45 -53 59 -75 l26 -41 83 -7 c131 -10
231 -23 257 -33 23 -8 22 -10 -25 -39 -27 -17 -77 -58 -112 -91 -54 -52 -66
-68 -79 -119 l-15 -58 66 -61 c36 -34 81 -69 100 -78 75 -35 220 -5 283 59 19
20 42 35 50 33 10 -2 23 -30 35 -78 19 -72 19 -80 4 -205 -8 -71 -18 -164 -22
-205 -8 -82 -59 -212 -88 -223 -9 -4 -16 -14 -16 -23 0 -15 -22 -42 -86 -108
-11 -11 -23 -28 -26 -37 -4 -9 -20 -23 -36 -30 -18 -8 -34 -25 -41 -46 -8 -21
-21 -35 -36 -39 -13 -3 -27 -14 -30 -24 -6 -20 -187 -190 -202 -190 -5 0 -15
-9 -23 -20 -8 -12 -26 -20 -42 -20 -15 0 -37 9 -48 20 -11 11 -22 20 -25 20
-9 0 -5 -39 4 -44 5 -3 11 -19 13 -36 4 -27 2 -30 -22 -30 -34 0 -43 -9 -28
-27 9 -11 6 -19 -13 -37 -13 -12 -42 -46 -64 -74 -56 -74 -58 -73 -80 50 -8
46 -21 121 -30 168 -43 231 -55 323 -75 530 -11 124 -25 270 -31 325 -5 55
-14 153 -19 218 -5 65 -12 128 -15 140 -4 20 -29 285 -42 457 -3 36 -8 81 -12
100 -9 39 4 80 25 80 9 0 12 13 11 41 -1 26 3 44 11 46 7 3 12 -4 12 -19 0
-12 7 -31 14 -40 12 -17 16 -16 62 9 27 14 61 32 76 40 15 8 30 19 34 24 9 15
29 5 32 -17z m1418 -941 c22 -14 24 -21 18 -57 -8 -49 -14 -62 -24 -47 -9 15
-40 3 -40 -15 0 -20 -32 -33 -57 -23 -13 5 -23 15 -23 24 0 8 -4 15 -10 15
-15 0 -43 48 -35 60 5 8 11 8 20 0 18 -15 56 -3 49 14 -6 16 32 46 59 46 10 0
29 -7 43 -17z m36 -330 c12 4 34 -1 50 -11 24 -14 27 -21 22 -48 -9 -50 25
-72 79 -49 10 4 21 4 24 1 4 -4 -2 -9 -14 -12 -12 -3 -24 -12 -27 -20 -3 -8
-12 -14 -21 -14 -19 0 -20 -16 0 -24 8 -3 15 -12 15 -20 0 -10 -6 -13 -16 -9
-9 3 -23 -3 -35 -16 -18 -19 -18 -22 -4 -27 9 -4 14 -13 11 -20 -3 -7 2 -27
10 -44 19 -37 12 -60 -16 -60 -19 0 -25 14 -21 47 2 15 -43 28 -60 17 -9 -5
-9 -10 2 -18 21 -17 41 -57 33 -64 -4 -4 -9 -1 -11 6 -3 6 -13 12 -23 12 -10
0 -21 7 -24 15 -3 9 -22 23 -41 31 -35 14 -44 28 -25 39 15 9 -14 35 -39 35
-12 0 -21 6 -21 14 0 7 -9 16 -20 19 -17 4 -20 14 -20 55 0 28 -3 57 -6 65 -3
8 5 27 18 42 30 34 128 76 145 62 7 -5 23 -7 35 -4z m-1762 -199 c4 -27 12
-42 27 -50 13 -6 20 -13 17 -17 -3 -3 2 -16 10 -30 11 -16 17 -53 20 -111 1
-47 6 -89 9 -93 4 -3 7 -17 7 -30 0 -12 5 -23 10 -23 6 0 10 8 10 18 0 25 7
31 30 25 10 -3 16 -11 14 -18 -8 -20 16 -101 26 -85 4 7 10 -18 14 -61 4 -41
13 -123 21 -184 8 -60 19 -173 25 -250 31 -416 31 -429 19 -452 -10 -19 -8
-25 14 -45 20 -18 27 -38 36 -101 6 -43 9 -83 5 -88 -11 -18 -55 -9 -78 18
-23 26 -46 25 -46 -3 0 -8 -4 -14 -10 -14 -5 0 -10 6 -10 13 0 6 -5 19 -10 27
-8 13 -11 12 -23 -4 -17 -24 -51 -17 -92 18 -25 21 -29 33 -31 78 -1 51 -19
160 -49 303 -33 158 -54 334 -54 460 0 72 0 148 0 169 -1 22 4 45 10 52 6 7 9
28 8 46 -1 18 5 47 14 65 11 21 13 34 6 38 -6 4 -8 14 -5 22 3 8 -2 25 -11 39
-12 19 -16 48 -16 116 1 82 3 93 22 108 14 10 20 22 16 32 -8 21 12 61 28 55
7 -2 14 -21 17 -43z m2911 -220 c10 -12 10 -22 1 -48 -17 -47 -15 -53 18 -65
37 -12 38 -24 4 -39 -14 -7 -23 -16 -20 -21 3 -4 -8 -20 -23 -34 -16 -14 -33
-32 -38 -40 -9 -16 -84 -29 -103 -17 -9 6 -7 13 8 28 11 11 23 35 27 53 4 19
18 48 31 66 13 17 24 41 24 52 0 12 9 30 20 41 11 11 17 20 14 20 -3 0 -2 5 1
10 9 14 21 12 36 -6z m0 -344 c15 0 32 -7 39 -15 10 -12 6 -15 -29 -21 -23 -4
-44 -10 -47 -15 -2 -5 -24 -18 -47 -29 -23 -11 -60 -31 -82 -44 -24 -13 -59
-23 -87 -25 -45 -1 -48 0 -48 23 0 27 41 66 69 66 21 0 84 64 74 74 -5 5 6 6
22 2 17 -3 36 -2 44 3 8 5 23 3 40 -5 14 -8 38 -14 52 -14z m1346 -456 c2 -7
-14 -14 -40 -18 -59 -9 -86 -28 -68 -49 15 -19 96 -33 114 -20 6 5 41 9 77 9
57 -1 65 -3 65 -20 0 -22 -12 -29 -75 -46 -67 -17 -133 -29 -256 -44 -100 -12
-147 -22 -212 -47 -13 -5 -37 -9 -54 -9 -17 0 -36 -7 -42 -15 -12 -15 -143
-65 -173 -65 -30 0 -1 17 57 34 33 9 65 26 78 41 12 14 28 25 34 25 7 0 24 16
38 35 14 19 31 35 38 35 20 0 14 48 -8 60 -32 17 -24 38 20 51 22 7 42 10 45
7 3 -2 0 -20 -5 -38 -11 -39 -5 -70 14 -70 18 0 30 17 45 66 15 46 29 56 111
78 64 17 192 17 197 0z m729 -179 c4 -15 0 -44 -10 -68 -21 -55 -20 -59 7 -55
20 3 22 -1 23 -41 0 -28 -6 -49 -16 -60 -20 -19 -35 -71 -21 -71 5 0 13 5 16
10 7 12 25 13 25 2 0 -4 -12 -21 -27 -37 -23 -24 -28 -26 -31 -13 -2 10 -19
27 -38 38 -28 18 -32 25 -24 40 6 10 16 22 23 27 8 5 0 10 -21 13 -31 5 -32 6
-19 25 10 13 26 19 51 18 42 -1 48 17 11 37 -27 14 -24 27 15 68 21 22 21 24
5 42 -15 16 -15 22 -5 35 18 22 29 19 36 -10z m-550 1 c3 -8 -4 -24 -16 -36
-11 -11 -18 -25 -15 -30 8 -14 100 -41 117 -35 9 4 22 -4 33 -21 17 -26 17
-27 -4 -21 -11 3 -39 0 -61 -5 -32 -8 -40 -15 -40 -33 0 -12 9 -32 20 -45 28
-32 26 -37 -22 -44 -24 -4 -62 -14 -86 -22 -24 -7 -80 -21 -125 -29 -142 -25
-281 -56 -292 -65 -6 -5 -40 -11 -75 -15 -99 -9 -100 -9 -108 -21 -4 -5 -29
-30 -55 -54 l-48 -44 5 63 c3 34 8 66 10 70 3 4 -1 35 -8 70 -16 78 -11 108
23 125 36 19 213 77 218 72 3 -2 20 2 38 10 19 8 46 14 60 14 14 0 37 7 50 16
14 9 32 14 40 10 33 -12 157 14 223 48 73 37 110 44 118 22z m-1661 -138 c-9
-28 3 -68 20 -68 33 0 14 -39 -27 -57 -17 -8 -28 -20 -28 -33 0 -11 -5 -20
-11 -20 -6 0 -9 -9 -6 -20 3 -11 1 -23 -5 -26 -6 -4 -9 6 -8 22 3 47 1 54 -19
54 -10 0 -21 -9 -24 -20 -8 -29 -45 -26 -59 6 -9 20 -18 25 -42 22 -24 -2 -33
2 -41 20 -6 13 -16 20 -24 17 -8 -3 -22 2 -32 11 -18 16 -19 16 -20 -7 0 -13
-3 -19 -5 -12 -3 7 -12 9 -21 6 -10 -4 -14 0 -12 13 2 10 0 25 -4 32 -10 15 0
33 16 27 7 -3 30 1 52 9 22 8 55 12 75 9 19 -3 49 -5 67 -5 36 0 49 -12 55
-47 1 -14 9 -26 16 -29 9 -3 10 3 2 23 -9 23 -7 28 10 32 11 3 20 11 20 18 0
8 9 17 20 20 11 3 20 13 20 21 0 8 5 12 10 9 6 -4 8 -16 5 -27z m1716 -229
c16 -14 37 -19 76 -19 40 0 58 -5 73 -20 20 -20 29 -87 10 -75 -5 3 -47 1 -92
-5 -46 -6 -94 -13 -108 -14 -42 -6 -130 -48 -141 -68 -15 -27 -5 -34 52 -41
28 -4 57 -11 64 -17 10 -9 19 -6 36 11 25 25 139 44 151 25 24 -36 -6 -82 -37
-56 -11 9 -17 9 -29 -3 -15 -14 -84 -16 -118 -2 -10 4 -18 3 -18 -3 0 -23 -56
-43 -156 -57 -110 -16 -128 -21 -119 -34 5 -9 -75 -21 -137 -21 -20 0 -39 -4
-43 -9 -17 -29 387 -35 441 -6 16 8 39 15 52 15 12 0 30 4 40 9 43 23 92 41
111 41 30 0 28 -38 -3 -50 -13 -5 -27 -13 -30 -19 -4 -5 -31 -21 -61 -35 -62
-28 -75 -52 -22 -42 60 11 70 11 74 -1 4 -12 -32 -28 -57 -25 -8 1 -26 -8 -40
-21 -24 -22 -70 -32 -70 -15 0 4 5 8 10 8 6 0 10 7 10 16 0 11 -8 14 -27 12
-21 -2 -29 -10 -36 -37 -6 -25 -5 -36 4 -42 9 -5 3 -10 -17 -15 -16 -4 -32
-12 -36 -18 -4 -7 -15 -3 -31 12 -21 20 -30 21 -88 16 -43 -5 -70 -13 -82 -25
-10 -11 -28 -19 -41 -19 -30 0 -47 -20 -44 -51 2 -18 -2 -25 -18 -27 -13 -2
-24 4 -28 14 -7 17 11 47 24 39 4 -2 5 7 2 20 -5 28 -9 29 -48 14 -47 -17
-100 24 -73 57 17 20 -7 45 -35 38 -24 -6 -39 7 -50 41 -5 17 2 25 39 43 28
14 43 26 39 35 -3 8 7 19 23 27 16 7 23 15 15 17 -17 6 -103 -37 -97 -48 4 -5
0 -6 -8 -3 -8 3 -17 -2 -20 -11 -6 -13 -9 -13 -27 5 -22 22 -25 54 -11 93 12
30 -10 67 -40 67 -14 0 -19 7 -19 30 0 21 5 30 16 30 10 0 14 -6 11 -15 -4 -8
-2 -17 3 -20 13 -8 22 30 18 77 -3 39 -2 41 35 54 21 7 50 11 65 8 23 -5 156
43 205 73 7 4 18 8 27 8 8 1 31 7 50 13 61 20 182 37 272 39 73 1 90 -1 109
-18z m-4365 -135 c-7 -26 2 -54 16 -54 5 0 23 -9 39 -21 20 -14 38 -19 54 -15
13 3 27 2 30 -4 3 -5 32 -10 63 -10 47 0 60 -4 84 -27 27 -26 37 -53 20 -53
-5 0 -17 9 -27 20 -15 16 -31 20 -85 20 -47 0 -71 4 -80 15 -8 9 -17 11 -28 5
-10 -4 -55 -13 -100 -20 -46 -6 -90 -14 -98 -17 -10 -4 -14 3 -14 20 0 34 -17
43 -41 21 -18 -17 -19 -16 -19 12 0 39 15 62 24 38 6 -16 8 -16 26 1 20 18 20
18 -1 41 -23 25 -18 44 11 44 11 0 22 -10 26 -22 9 -33 34 -58 56 -58 18 0 25
24 9 34 -9 6 -21 53 -14 59 2 2 15 2 29 -1 21 -4 24 -9 20 -28z m2374 -124
c18 -16 36 -30 41 -30 14 0 11 16 -6 30 -11 9 -13 16 -6 23 14 14 41 -9 41
-34 0 -25 11 -24 34 2 13 16 21 18 29 10 6 -6 21 -11 34 -11 33 0 29 -26 -7
-42 -34 -15 -44 -54 -12 -45 11 2 37 -6 58 -19 21 -13 48 -24 59 -25 15 0 11
-5 -15 -17 -46 -22 -52 -33 -33 -54 20 -22 77 -18 81 6 5 22 19 20 25 -4 3
-12 14 -20 27 -20 19 0 21 4 15 30 -8 37 11 41 27 6 12 -27 41 -43 46 -27 2 6
10 11 18 11 9 0 13 -4 10 -9 -6 -10 17 -33 30 -30 25 4 24 -3 -1 -26 -21 -20
-30 -23 -41 -14 -11 9 -14 6 -14 -19 0 -35 -30 -59 -58 -46 -34 14 -53 12 -47
-7 4 -12 -1 -19 -15 -24 -11 -4 -28 -17 -36 -31 -24 -35 -71 -33 -86 4 l-11
27 -9 -34 c-12 -44 -6 -58 31 -66 17 -4 31 -10 31 -13 0 -4 9 -18 19 -32 16
-20 22 -22 35 -11 12 10 23 11 47 2 18 -6 43 -11 55 -11 15 0 24 -6 24 -15 0
-16 4 -17 88 -20 32 -1 59 -8 70 -19 20 -18 34 -12 25 10 -3 8 0 14 6 14 7 0
14 -6 17 -14 3 -8 21 -14 44 -14 21 0 49 -6 62 -13 21 -10 58 -44 58 -51 0 -2
-22 -3 -49 -4 -40 -1 -48 2 -44 14 4 10 1 13 -8 10 -8 -3 -13 -11 -11 -18 2
-7 -3 -17 -10 -22 -10 -8 -10 -11 0 -15 19 -7 14 -23 -7 -23 -10 0 -21 7 -25
15 -3 8 -1 15 4 15 13 0 13 57 0 65 -6 4 -23 -7 -39 -24 -16 -17 -31 -31 -34
-31 -19 0 -37 15 -37 32 0 10 -4 16 -10 13 -5 -3 -10 -20 -10 -36 0 -17 -6
-32 -15 -36 -9 -3 -15 -13 -13 -23 2 -10 -9 -32 -25 -49 -21 -24 -26 -39 -25
-68 3 -41 27 -70 41 -50 5 7 6 -8 2 -33 -3 -25 -12 -50 -21 -56 -12 -10 -10
-15 18 -32 18 -12 35 -17 36 -12 4 10 32 14 32 5 0 -3 -5 -13 -11 -23 -7 -12
-8 -32 -2 -62 8 -40 12 -45 35 -43 24 1 29 -3 56 -59 2 -5 -3 -8 -11 -8 -15 0
-30 26 -22 39 2 4 -2 8 -10 8 -20 0 -26 -24 -9 -37 8 -7 14 -21 14 -31 0 -15
-7 -19 -35 -19 -28 0 -37 -5 -45 -24 -5 -13 -6 -33 -3 -45 4 -16 -1 -23 -20
-30 -14 -5 -28 -14 -31 -19 -6 -10 -145 -7 -205 3 -19 4 -62 20 -96 36 -60 28
-63 31 -69 73 -4 24 -4 55 -1 68 4 16 1 29 -9 37 -9 8 -16 28 -16 45 0 17 -7
41 -15 54 -9 12 -18 34 -20 49 -2 16 -10 43 -18 62 -14 32 -14 32 -20 10 -4
-13 -7 -52 -7 -85 0 -52 -3 -62 -19 -67 -22 -5 -30 -49 -23 -128 4 -54 4 -56
-22 -61 -18 -4 -26 -1 -26 8 0 8 -5 14 -10 14 -6 0 -15 12 -20 26 -6 14 -14
22 -20 19 -5 -3 -10 -1 -10 4 0 6 7 11 15 11 17 0 20 17 4 22 -5 2 -11 18 -11
36 -1 35 -13 45 -65 57 -25 5 -33 3 -33 -8 0 -8 7 -20 16 -28 14 -12 14 -14
-1 -25 -22 -16 -12 -70 16 -84 23 -13 25 -33 4 -50 -8 -7 -15 -20 -15 -30 0
-10 -7 -23 -15 -30 -9 -8 -13 -21 -9 -36 5 -19 0 -25 -28 -37 -36 -15 -68 -7
-68 18 0 20 -53 104 -66 105 -7 0 -14 -9 -17 -21 -12 -46 -24 -5 -20 67 4 68
2 78 -18 100 -22 23 -20 28 11 25 8 -1 20 10 26 23 9 20 8 28 -10 46 l-21 22
32 -7 c29 -6 34 -4 43 20 8 21 15 26 32 22 12 -4 27 -2 32 3 17 13 86 24 86
13 0 -6 -9 -18 -20 -28 -14 -13 -17 -22 -10 -31 8 -8 7 -14 -2 -17 -7 -3 -2
-6 11 -6 15 -1 21 4 18 12 -2 7 6 18 19 24 13 6 24 7 24 2 0 -5 7 -9 15 -9 8
0 15 -4 15 -10 0 -5 5 -10 12 -10 6 0 8 3 5 6 -3 4 -2 14 3 24 15 28 1 60 -26
60 -13 0 -24 4 -24 10 0 5 5 9 12 7 6 -1 26 20 44 47 39 58 51 67 81 59 14 -3
23 -1 23 6 0 6 6 11 14 11 8 0 16 15 19 37 5 30 2 42 -15 60 -26 28 -40 29
-53 5 -6 -10 -19 -35 -29 -55 -16 -30 -25 -37 -50 -37 -20 0 -36 -7 -43 -19
-12 -19 -67 -51 -88 -51 -7 0 -20 -9 -30 -20 -23 -25 -50 -25 -82 0 -14 11
-32 20 -39 20 -8 0 -14 4 -14 9 0 5 -7 8 -16 7 -11 -1 -17 9 -20 32 -3 23 0
32 10 32 21 0 31 21 15 31 -11 7 -11 11 -1 21 9 9 15 10 20 2 18 -28 87 -18
81 12 -5 28 2 35 29 30 37 -8 60 7 43 28 -17 20 -50 21 -57 2 -3 -9 -12 -12
-22 -9 -11 5 -14 2 -9 -10 5 -13 -2 -19 -26 -25 -18 -5 -39 -5 -49 0 -19 9
-64 -28 -70 -58 -4 -25 -28 -30 -28 -6 0 28 -25 45 -55 38 -14 -4 -25 -3 -25
2 0 13 40 52 53 52 7 0 39 22 72 50 33 27 70 50 83 50 14 0 22 6 22 18 0 9 9
23 20 30 17 10 20 10 20 -3 0 -8 9 -19 20 -25 11 -6 18 -15 14 -21 -6 -11 13
-39 27 -39 5 0 9 9 9 20 0 11 7 20 15 20 9 0 18 7 21 15 4 8 14 15 25 15 11 0
25 14 36 38 31 66 37 69 116 64 l72 -4 2 30 c1 20 -6 37 -21 51 -19 18 -30 21
-65 15 -39 -6 -42 -9 -38 -31 4 -21 1 -24 -17 -19 -11 3 -34 6 -49 6 -28 0
-35 23 -9 26 26 3 26 5 -3 22 l-30 17 33 3 c32 3 32 4 26 40 -9 48 -9 48 -47
34 -19 -7 -45 -12 -60 -12 -19 0 -40 -14 -71 -47 -38 -40 -42 -48 -30 -60 24
-25 10 -71 -19 -60 -8 3 -18 2 -23 -2 -5 -5 -25 -11 -44 -15 -31 -5 -33 -4
-17 8 19 14 23 46 6 46 -6 0 -19 -5 -30 -11 -16 -8 -20 -7 -18 3 3 27 -1 38
-16 38 -9 0 -15 -9 -15 -25 0 -14 -6 -26 -12 -27 -7 0 -19 -2 -26 -2 -7 -1
-17 -7 -21 -15 -10 -15 -31 -6 -31 13 0 8 -14 16 -30 20 l-30 6 22 25 c23 27
56 32 89 14 16 -8 25 -7 38 5 10 9 22 16 28 16 6 0 16 7 23 15 7 8 16 12 21 9
5 -3 22 4 38 15 16 12 36 21 45 21 22 0 37 34 30 69 -5 24 -3 31 10 31 19 0
22 39 4 41 -41 4 -43 6 -29 40 9 24 29 39 52 39 5 0 7 -17 3 -38 -5 -33 -2
-42 28 -75 19 -20 41 -37 49 -37 8 0 32 -9 54 -20 60 -31 82 -25 49 12 -20 21
-12 34 40 62 36 19 36 19 59 -2 18 -17 26 -19 35 -10 7 7 12 18 12 25 0 7 11
15 25 19 27 7 33 19 12 27 -18 7 -70 116 -63 133 8 21 20 17 56 -16z m-2168
-1070 c10 0 18 -7 18 -15 0 -8 9 -23 20 -33 18 -16 20 -31 19 -113 -1 -151 -1
-151 -23 -145 -17 4 -18 0 -12 -49 6 -57 -4 -76 -30 -54 -8 7 -12 20 -8 31 5
17 3 18 -15 9 -12 -7 -18 -17 -15 -26 4 -8 1 -15 -4 -15 -17 0 -24 18 -14 36
11 20 -3 93 -22 108 -15 13 -39 93 -32 105 6 9 36 8 54 -3 7 -4 12 -2 12 7 0
8 -9 17 -19 20 -29 7 -40 75 -16 93 16 12 15 14 -9 20 -14 3 -26 9 -26 13 0
16 14 20 32 10 16 -8 24 -7 36 5 11 10 20 12 26 6 6 -6 18 -10 28 -10z m2567
-408 c22 0 57 -7 76 -16 28 -13 35 -23 34 -44 0 -15 -3 -21 -6 -14 -2 6 -9 10
-14 6 -12 -7 -12 -44 1 -44 6 0 10 5 10 11 0 5 5 7 11 3 8 -4 8 -9 0 -17 -6
-6 -11 -15 -11 -21 0 -6 5 -5 12 2 17 17 38 15 38 -3 0 -8 7 -15 15 -15 8 0
15 -7 15 -15 0 -21 -56 -20 -64 1 -8 22 -41 13 -41 -11 0 -15 -8 -21 -33 -23
-18 -2 -30 -7 -27 -13 3 -5 0 -6 -7 -4 -8 3 -24 -6 -36 -20 -27 -30 -33 -31
-55 -4 -16 18 -20 19 -30 6 -7 -9 -31 -25 -55 -37 -32 -17 -46 -19 -56 -11
-15 13 -58 132 -61 171 -1 14 -4 30 -5 35 -2 6 0 22 4 38 6 19 15 27 31 27 13
0 27 5 31 11 4 7 24 10 53 6 25 -2 55 -1 66 3 11 4 30 4 42 -1 11 -4 39 -8 62
-7z m-420 -41 c16 -41 22 -215 8 -234 -15 -20 -53 -27 -49 -9 1 7 -3 23 -10
35 -6 12 -12 52 -13 89 -1 37 -8 74 -15 83 -7 8 -10 25 -6 38 4 18 13 23 40
24 28 1 36 -4 45 -26z"/>
<path d="M1173 5912 c-22 -3 -33 -22 -14 -22 15 0 24 -41 12 -53 -13 -13 -14
-44 -2 -52 5 -3 16 2 24 10 9 8 23 15 31 15 9 0 16 5 16 10 0 21 39 9 64 -21
29 -34 32 -49 14 -68 -11 -11 -7 -12 17 -7 17 3 54 2 83 -2 28 -5 52 -5 52 -1
0 12 -53 59 -65 59 -6 0 -30 18 -54 39 -51 47 -103 71 -109 53 -2 -7 -8 -12
-13 -12 -6 0 -8 4 -5 9 8 12 -3 39 -17 43 -7 2 -22 2 -34 0z"/>
<path d="M794 3796 c-19 -14 -19 -15 1 -21 36 -12 64 -28 85 -47 34 -32 21
-88 -21 -88 -10 0 -21 -9 -24 -20 -3 -11 -26 -32 -51 -46 -48 -28 -55 -51 -24
-79 19 -17 20 -17 30 11 12 32 88 106 101 98 5 -2 14 4 21 16 7 11 18 20 25
20 7 0 13 9 13 20 0 38 -29 79 -75 106 -25 14 -45 30 -45 35 0 13 -13 11 -36
-5z"/>
<path d="M2622 1048 c-40 -11 -51 -33 -28 -56 16 -16 18 -16 27 1 12 21 47 22
75 2 25 -17 167 -57 209 -58 17 0 51 3 78 7 36 6 47 13 47 27 0 24 -18 33 -36
18 -22 -18 -178 -3 -234 23 -83 39 -104 44 -138 36z"/>
<path d="M2198 751 c-39 -39 -37 -55 7 -47 21 4 35 3 35 -3 0 -6 -7 -8 -17 -4
-14 5 -15 1 -10 -25 5 -26 3 -31 -16 -34 -29 -4 -31 -43 -2 -44 11 0 30 -6 42
-12 29 -16 44 5 17 25 -16 12 -17 15 -4 23 25 16 35 12 54 -25 14 -25 26 -35
43 -35 26 0 26 0 13 34 -5 14 -16 26 -24 26 -19 0 -55 74 -45 93 7 11 3 13
-15 10 -18 -4 -28 1 -38 20 l-13 26 -27 -28z"/>
<path d="M5821 7683 c25 -32 43 -42 76 -43 26 0 33 -5 43 -32 7 -18 12 -36 11
-41 0 -4 11 -26 25 -49 14 -22 34 -64 44 -92 10 -28 29 -72 43 -98 14 -26 28
-69 32 -96 15 -112 26 -162 35 -162 10 0 22 48 15 60 -9 14 13 60 29 60 20 0
70 -36 129 -93 l49 -46 5 -118 c5 -104 20 -173 38 -173 3 0 5 168 5 374 l0
373 -25 -5 c-14 -2 -25 0 -25 6 0 6 11 19 25 30 18 15 25 29 25 56 0 34 -1 36
-27 30 -49 -10 -54 -13 -51 -31 4 -25 -29 -29 -37 -4 -3 12 -15 26 -26 31 -10
6 -19 20 -19 31 0 25 41 43 53 23 12 -20 27 -17 27 5 0 18 -8 20 -135 20 -74
1 -135 -3 -135 -8 0 -5 6 -14 14 -20 21 -17 26 -59 8 -66 -8 -3 -16 -4 -17 -3
-10 14 -35 74 -35 85 0 9 -14 13 -45 13 -31 0 -43 -4 -40 -12 3 -7 0 -20 -5
-28 -9 -13 -12 -13 -23 1 -17 22 -51 39 -78 39 -19 0 -20 -2 -8 -17z m331
-127 c8 -7 23 -16 35 -20 12 -4 38 -24 59 -46 21 -22 50 -42 65 -45 24 -6 27
-11 33 -69 4 -46 2 -73 -9 -99 -8 -20 -15 -46 -15 -57 0 -52 -50 -2 -71 71
-14 48 -14 46 -3 73 5 13 4 17 -3 13 -7 -5 -9 0 -6 13 4 14 0 20 -13 20 -9 0
-15 3 -11 6 8 8 -13 64 -25 64 -6 0 -7 -11 -4 -25 4 -14 3 -25 -1 -25 -18 1
-42 28 -48 53 -4 14 -13 31 -21 38 -17 14 -18 36 -1 42 20 9 25 8 39 -7z"/>
<path d="M2 7275 c3 -66 4 -70 28 -73 54 -6 69 -13 75 -35 14 -47 50 -117 62
-117 16 0 33 32 33 63 0 15 -9 28 -25 37 -14 7 -33 29 -43 48 -13 26 -28 38
-56 46 -31 9 -40 18 -51 49 -21 61 -26 56 -23 -18z"/>
<path d="M6136 6802 c-2 -4 -7 -24 -11 -44 -6 -30 -2 -47 20 -85 l26 -48 -20
-14 c-12 -7 -21 -20 -21 -27 0 -8 -6 -14 -12 -14 -14 0 -68 -63 -68 -79 0 -24
31 -9 54 27 28 43 82 92 102 92 8 0 17 -6 20 -14 3 -8 25 -27 50 -42 24 -15
44 -36 44 -45 0 -9 7 -19 15 -23 8 -3 15 -14 15 -23 0 -22 27 -63 41 -63 7 0
10 40 7 114 l-3 115 -40 35 c-22 19 -45 35 -50 36 -6 0 -16 9 -23 20 -7 11
-19 20 -28 20 -8 0 -12 5 -9 10 11 17 -5 32 -20 20 -11 -9 -20 -7 -39 7 -14
10 -26 21 -26 26 0 9 -17 9 -24 -1z"/>
<path d="M3467 6752 c-24 -26 -21 -42 7 -42 13 0 30 -10 38 -21 12 -19 16 -20
35 -8 18 11 28 10 61 -3 27 -11 45 -12 57 -6 11 7 20 7 27 0 7 -7 16 -7 27 0
11 7 30 6 59 -1 36 -10 44 -17 49 -42 4 -21 11 -29 23 -27 10 2 26 -5 36 -14
25 -22 70 -33 78 -19 4 6 3 11 -1 11 -12 0 -75 60 -94 91 -28 41 -146 58 -186
26 -7 -5 -13 -6 -13 -1 0 14 -101 62 -145 69 -33 5 -44 2 -58 -13z"/>
<path d="M4630 5780 l0 -80 40 0 40 0 0 -180 0 -180 -34 0 c-45 0 -58 -20 -14
-21 18 -1 36 -1 41 0 4 0 7 -64 7 -143 0 -159 1 -156 -67 -156 l-36 0 8 -72
c3 -40 9 -76 12 -81 3 -4 17 -6 31 -3 39 9 244 34 335 42 l77 7 0 -102 0 -102
78 3 77 3 5 110 5 110 52 5 51 5 6 -95 c4 -52 5 -104 4 -115 -3 -18 4 -20 81
-23 l83 -3 -4 105 c-2 57 0 102 4 100 5 -3 8 -12 8 -21 0 -13 16 -15 113 -11
145 5 180 20 220 98 26 50 28 62 24 135 -3 67 -9 91 -39 150 -20 39 -50 87
-67 109 -30 37 -30 39 -14 70 9 17 38 80 65 141 43 98 48 117 48 182 l0 73
-262 -2 -261 -3 -3 -200 c-1 -110 -3 -210 -3 -222 -1 -21 -13 -23 -98 -14 -10
1 -13 38 -13 151 l0 150 50 0 51 0 -3 78 -3 77 -347 3 -348 2 0 -80z m440
-135 l0 -55 -95 0 -95 0 0 55 0 55 95 0 95 0 0 -55z m610 27 c0 -9 -96 -246
-111 -273 -6 -12 3 -28 32 -60 84 -92 127 -188 114 -251 -10 -41 -57 -60 -143
-56 l-67 3 2 240 c1 132 2 277 2 323 l1 82 85 0 c47 0 85 -4 85 -8z m-610
-287 l0 -55 -95 0 -95 0 0 55 0 55 95 0 95 0 0 -55z m274 -44 c8 -51 7 -214
-2 -227 -4 -6 -31 -12 -59 -13 l-53 -2 0 134 c0 73 2 136 4 138 3 2 27 5 54 5
50 1 50 1 56 -35z m-274 -215 l0 -54 -42 -6 c-24 -3 -67 -8 -95 -12 l-53 -7 0
67 0 66 95 0 95 0 0 -54z"/>
<path d="M3975 5530 c-2 -4 -14 -6 -27 -5 -27 2 -51 -26 -41 -50 5 -15 8 -13
17 8 9 21 14 24 26 14 21 -17 41 -78 34 -104 -6 -21 -3 -23 27 -23 19 0 43 -7
53 -15 23 -18 54 -19 93 -4 l28 10 -32 29 c-19 17 -27 32 -22 37 11 11 2 43
-12 43 -5 0 -9 -7 -9 -15 0 -18 -2 -18 -51 -3 -22 6 -40 16 -40 22 -1 6 -2 16
-4 21 -1 6 -3 17 -3 26 -2 15 -29 22 -37 9z"/>
<path d="M5340 4421 c0 -87 3 -173 6 -190 6 -28 10 -31 44 -31 47 0 48 2 50
218 l1 162 -51 0 -50 0 0 -159z"/>
<path d="M6020 4396 c0 -199 0 -200 54 -200 28 0 32 4 38 40 4 21 7 108 7 192
l1 152 -50 0 -50 0 0 -184z"/>
<path d="M4660 4418 c0 -84 3 -170 7 -191 6 -37 6 -38 47 -35 l41 3 3 188 2
187 -50 0 -50 0 0 -152z"/>
<path d="M6255 199 c-71 -4 -166 -10 -210 -13 -173 -10 -374 -27 -458 -37 -48
-6 -135 -12 -195 -14 -59 -2 -188 -11 -287 -19 -99 -8 -187 -15 -195 -15 -15
-1 -240 -11 -270 -12 -8 0 -67 -7 -130 -14 -114 -14 -357 -31 -580 -41 -63 -3
-120 -7 -127 -9 -7 -2 -63 -7 -125 -11 -62 -3 -115 -8 -117 -10 -2 -2 635 -4
1417 -4 l1422 0 0 105 c0 58 -3 104 -7 103 -5 0 -66 -5 -138 -9z"/>
</g>
</svg>
